<mxfile host="app.diagrams.net" modified="2021-04-07T13:33:39.192Z" agent="5.0 (Windows)" etag="mtOY8Ax4DCYecOp9IQMY" version="14.5.8" type="github" pages="3">
  <diagram id="5WvE_TeE9GjP7bDvHqvS" name="Classes">
    <mxGraphModel dx="2199" dy="753" grid="1" gridSize="10" guides="1" tooltips="1" connect="1" arrows="1" fold="1" page="1" pageScale="1" pageWidth="827" pageHeight="1169" math="0" shadow="0">
      <root>
        <mxCell id="0" />
        <mxCell id="1" parent="0" />
        <mxCell id="yAYhWzeGtVgSM8NESJbi-16" value="Login" style="swimlane;fontStyle=1;align=center;verticalAlign=top;childLayout=stackLayout;horizontal=1;startSize=26;horizontalStack=0;resizeParent=1;resizeParentMax=0;resizeLast=0;collapsible=1;marginBottom=0;" vertex="1" parent="1">
          <mxGeometry x="450" y="200" width="160" height="130" as="geometry" />
        </mxCell>
        <mxCell id="yAYhWzeGtVgSM8NESJbi-17" value="- userName:String&#xa;- password:String" style="text;strokeColor=none;fillColor=none;align=left;verticalAlign=top;spacingLeft=4;spacingRight=4;overflow=hidden;rotatable=0;points=[[0,0.5],[1,0.5]];portConstraint=eastwest;" vertex="1" parent="yAYhWzeGtVgSM8NESJbi-16">
          <mxGeometry y="26" width="160" height="54" as="geometry" />
        </mxCell>
        <mxCell id="yAYhWzeGtVgSM8NESJbi-18" value="" style="line;strokeWidth=1;fillColor=none;align=left;verticalAlign=middle;spacingTop=-1;spacingLeft=3;spacingRight=3;rotatable=0;labelPosition=right;points=[];portConstraint=eastwest;" vertex="1" parent="yAYhWzeGtVgSM8NESJbi-16">
          <mxGeometry y="80" width="160" height="8" as="geometry" />
        </mxCell>
        <mxCell id="yAYhWzeGtVgSM8NESJbi-19" value="+ login():boolean&#xa;+ forgot_password():void&#xa;" style="text;strokeColor=none;fillColor=none;align=left;verticalAlign=top;spacingLeft=4;spacingRight=4;overflow=hidden;rotatable=0;points=[[0,0.5],[1,0.5]];portConstraint=eastwest;" vertex="1" parent="yAYhWzeGtVgSM8NESJbi-16">
          <mxGeometry y="88" width="160" height="42" as="geometry" />
        </mxCell>
        <mxCell id="Yq6aoSofiCBbfpdhKU_5-1" value="User" style="swimlane;fontStyle=1;align=center;verticalAlign=top;childLayout=stackLayout;horizontal=1;startSize=26;horizontalStack=0;resizeParent=1;resizeParentMax=0;resizeLast=0;collapsible=1;marginBottom=0;fillColor=#FEFFFA;" vertex="1" parent="1">
          <mxGeometry x="30" y="200" width="320" height="150" as="geometry" />
        </mxCell>
        <mxCell id="Yq6aoSofiCBbfpdhKU_5-2" value="- firstName:String&#xa;- lastName:String&#xa;- password:Password&#xa;" style="text;strokeColor=none;fillColor=none;align=left;verticalAlign=top;spacingLeft=4;spacingRight=4;overflow=hidden;rotatable=0;points=[[0,0.5],[1,0.5]];portConstraint=eastwest;" vertex="1" parent="Yq6aoSofiCBbfpdhKU_5-1">
          <mxGeometry y="26" width="320" height="54" as="geometry" />
        </mxCell>
        <mxCell id="Yq6aoSofiCBbfpdhKU_5-3" value="" style="line;strokeWidth=1;fillColor=none;align=left;verticalAlign=middle;spacingTop=-1;spacingLeft=3;spacingRight=3;rotatable=0;labelPosition=right;points=[];portConstraint=eastwest;" vertex="1" parent="Yq6aoSofiCBbfpdhKU_5-1">
          <mxGeometry y="80" width="320" height="8" as="geometry" />
        </mxCell>
        <mxCell id="Yq6aoSofiCBbfpdhKU_5-4" value="+ changeLastName(String newName):boolean&#xa;+ changePassword(String newPassword):password&#xa;+ deleteUser():boolean&#xa;&#xa;" style="text;strokeColor=none;fillColor=none;align=left;verticalAlign=top;spacingLeft=4;spacingRight=4;overflow=hidden;rotatable=0;points=[[0,0.5],[1,0.5]];portConstraint=eastwest;" vertex="1" parent="Yq6aoSofiCBbfpdhKU_5-1">
          <mxGeometry y="88" width="320" height="62" as="geometry" />
        </mxCell>
        <mxCell id="QmFmvsBYAUK9m0hf4N-G-6" style="edgeStyle=orthogonalEdgeStyle;rounded=0;orthogonalLoop=1;jettySize=auto;html=1;entryX=-0.006;entryY=0.821;entryDx=0;entryDy=0;entryPerimeter=0;" edge="1" parent="1" source="QmFmvsBYAUK9m0hf4N-G-2" target="Yq6aoSofiCBbfpdhKU_5-2">
          <mxGeometry relative="1" as="geometry">
            <Array as="points">
              <mxPoint x="160" y="370" />
              <mxPoint x="10" y="370" />
              <mxPoint x="10" y="270" />
            </Array>
          </mxGeometry>
        </mxCell>
        <mxCell id="QmFmvsBYAUK9m0hf4N-G-2" value="Password" style="swimlane;fontStyle=1;align=center;verticalAlign=top;childLayout=stackLayout;horizontal=1;startSize=26;horizontalStack=0;resizeParent=1;resizeParentMax=0;resizeLast=0;collapsible=1;marginBottom=0;fillColor=#FEFFFA;" vertex="1" parent="1">
          <mxGeometry x="80" y="410" width="200" height="130" as="geometry" />
        </mxCell>
        <mxCell id="QmFmvsBYAUK9m0hf4N-G-3" value="- password:String" style="text;strokeColor=none;fillColor=none;align=left;verticalAlign=top;spacingLeft=4;spacingRight=4;overflow=hidden;rotatable=0;points=[[0,0.5],[1,0.5]];portConstraint=eastwest;" vertex="1" parent="QmFmvsBYAUK9m0hf4N-G-2">
          <mxGeometry y="26" width="200" height="26" as="geometry" />
        </mxCell>
        <mxCell id="QmFmvsBYAUK9m0hf4N-G-4" value="" style="line;strokeWidth=1;fillColor=none;align=left;verticalAlign=middle;spacingTop=-1;spacingLeft=3;spacingRight=3;rotatable=0;labelPosition=right;points=[];portConstraint=eastwest;" vertex="1" parent="QmFmvsBYAUK9m0hf4N-G-2">
          <mxGeometry y="52" width="200" height="8" as="geometry" />
        </mxCell>
        <mxCell id="QmFmvsBYAUK9m0hf4N-G-5" value="+setPassword():Password&#xa;+ deletePassword():boolean&#xa;+ usedinLast12Month()Â´:boolean" style="text;strokeColor=none;fillColor=none;align=left;verticalAlign=top;spacingLeft=4;spacingRight=4;overflow=hidden;rotatable=0;points=[[0,0.5],[1,0.5]];portConstraint=eastwest;" vertex="1" parent="QmFmvsBYAUK9m0hf4N-G-2">
          <mxGeometry y="60" width="200" height="70" as="geometry" />
        </mxCell>
        <mxCell id="8Pk3aCnCF4FakZzgmtOB-1" value="1" style="text;html=1;align=center;verticalAlign=middle;resizable=0;points=[];autosize=1;strokeColor=none;" vertex="1" parent="1">
          <mxGeometry x="-10" y="290" width="20" height="20" as="geometry" />
        </mxCell>
        <mxCell id="8Pk3aCnCF4FakZzgmtOB-2" value="BankAccount" style="swimlane;fontStyle=1;align=center;verticalAlign=top;childLayout=stackLayout;horizontal=1;startSize=26;horizontalStack=0;resizeParent=1;resizeParentMax=0;resizeLast=0;collapsible=1;marginBottom=0;fillColor=#FEFFFA;" vertex="1" parent="1">
          <mxGeometry x="410" y="432" width="260" height="220" as="geometry" />
        </mxCell>
        <mxCell id="8Pk3aCnCF4FakZzgmtOB-3" value="- number:int static&#xa;- customer:Customer&#xa;- balanca:int&#xa;- lastTransactions: ArrayList&lt;Integer&gt;&#xa;- bankID:int&#xa;" style="text;strokeColor=none;fillColor=none;align=left;verticalAlign=top;spacingLeft=4;spacingRight=4;overflow=hidden;rotatable=0;points=[[0,0.5],[1,0.5]];portConstraint=eastwest;" vertex="1" parent="8Pk3aCnCF4FakZzgmtOB-2">
          <mxGeometry y="26" width="260" height="94" as="geometry" />
        </mxCell>
        <mxCell id="8Pk3aCnCF4FakZzgmtOB-4" value="" style="line;strokeWidth=1;fillColor=none;align=left;verticalAlign=middle;spacingTop=-1;spacingLeft=3;spacingRight=3;rotatable=0;labelPosition=right;points=[];portConstraint=eastwest;" vertex="1" parent="8Pk3aCnCF4FakZzgmtOB-2">
          <mxGeometry y="120" width="260" height="8" as="geometry" />
        </mxCell>
        <mxCell id="8Pk3aCnCF4FakZzgmtOB-5" value="+ deposit():void&#xa;+ getBalance():int&#xa;+ getLastTransactions:ArrayList&lt;Integer&gt;&#xa;+ toString():String&#xa;" style="text;strokeColor=none;fillColor=none;align=left;verticalAlign=top;spacingLeft=4;spacingRight=4;overflow=hidden;rotatable=0;points=[[0,0.5],[1,0.5]];portConstraint=eastwest;" vertex="1" parent="8Pk3aCnCF4FakZzgmtOB-2">
          <mxGeometry y="128" width="260" height="92" as="geometry" />
        </mxCell>
        <mxCell id="8Pk3aCnCF4FakZzgmtOB-6" value="Customer" style="swimlane;fontStyle=1;align=center;verticalAlign=top;childLayout=stackLayout;horizontal=1;startSize=26;horizontalStack=0;resizeParent=1;resizeParentMax=0;resizeLast=0;collapsible=1;marginBottom=0;fillColor=#FEFFFA;" vertex="1" parent="1">
          <mxGeometry x="820" y="432" width="360" height="170" as="geometry" />
        </mxCell>
        <mxCell id="8Pk3aCnCF4FakZzgmtOB-7" value="- firstName:String&#xa;-lastName:String&#xa;- age: int&#xa;- accountManager:String&#xa;" style="text;strokeColor=none;fillColor=none;align=left;verticalAlign=top;spacingLeft=4;spacingRight=4;overflow=hidden;rotatable=0;points=[[0,0.5],[1,0.5]];portConstraint=eastwest;" vertex="1" parent="8Pk3aCnCF4FakZzgmtOB-6">
          <mxGeometry y="26" width="360" height="64" as="geometry" />
        </mxCell>
        <mxCell id="8Pk3aCnCF4FakZzgmtOB-8" value="" style="line;strokeWidth=1;fillColor=none;align=left;verticalAlign=middle;spacingTop=-1;spacingLeft=3;spacingRight=3;rotatable=0;labelPosition=right;points=[];portConstraint=eastwest;" vertex="1" parent="8Pk3aCnCF4FakZzgmtOB-6">
          <mxGeometry y="90" width="360" height="8" as="geometry" />
        </mxCell>
        <mxCell id="8Pk3aCnCF4FakZzgmtOB-9" value="+ Customer(String fName, String lName):Customer&#xa;+ Customer(String fName, String lName, int age):Customer&#xa;+ toString():String&#xa;+ getAccountManager:String&#xa;" style="text;strokeColor=none;fillColor=none;align=left;verticalAlign=top;spacingLeft=4;spacingRight=4;overflow=hidden;rotatable=0;points=[[0,0.5],[1,0.5]];portConstraint=eastwest;" vertex="1" parent="8Pk3aCnCF4FakZzgmtOB-6">
          <mxGeometry y="98" width="360" height="72" as="geometry" />
        </mxCell>
        <mxCell id="8Pk3aCnCF4FakZzgmtOB-10" style="edgeStyle=orthogonalEdgeStyle;rounded=0;orthogonalLoop=1;jettySize=auto;html=1;entryX=-0.002;entryY=1.052;entryDx=0;entryDy=0;entryPerimeter=0;" edge="1" parent="1" source="8Pk3aCnCF4FakZzgmtOB-3" target="8Pk3aCnCF4FakZzgmtOB-7">
          <mxGeometry relative="1" as="geometry" />
        </mxCell>
        <mxCell id="8Pk3aCnCF4FakZzgmtOB-11" value="1" style="edgeLabel;html=1;align=center;verticalAlign=middle;resizable=0;points=[];" vertex="1" connectable="0" parent="8Pk3aCnCF4FakZzgmtOB-10">
          <mxGeometry x="0.7628" y="1" relative="1" as="geometry">
            <mxPoint as="offset" />
          </mxGeometry>
        </mxCell>
        <mxCell id="8Pk3aCnCF4FakZzgmtOB-12" value="*" style="edgeLabel;html=1;align=center;verticalAlign=middle;resizable=0;points=[];" vertex="1" connectable="0" parent="8Pk3aCnCF4FakZzgmtOB-10">
          <mxGeometry x="-0.8035" y="3" relative="1" as="geometry">
            <mxPoint as="offset" />
          </mxGeometry>
        </mxCell>
      </root>
    </mxGraphModel>
  </diagram>
  <diagram id="vHmOPJeJbX0OVW7oPPSt" name="Use Case">
    <mxGraphModel dx="1372" dy="753" grid="1" gridSize="10" guides="1" tooltips="1" connect="1" arrows="1" fold="1" page="1" pageScale="1" pageWidth="827" pageHeight="1169" math="0" shadow="0">
      <root>
        <mxCell id="63PPgOzyXpiEod-4MCjg-0" />
        <mxCell id="63PPgOzyXpiEod-4MCjg-1" parent="63PPgOzyXpiEod-4MCjg-0" />
        <mxCell id="md37uZJamLbwJpJN7hos-7" style="edgeStyle=orthogonalEdgeStyle;rounded=0;orthogonalLoop=1;jettySize=auto;html=1;" edge="1" parent="63PPgOzyXpiEod-4MCjg-1" source="nu3Nz8jD-Tqhlq5qlsEE-3" target="md37uZJamLbwJpJN7hos-6">
          <mxGeometry relative="1" as="geometry" />
        </mxCell>
        <mxCell id="nu3Nz8jD-Tqhlq5qlsEE-3" value="User" style="shape=umlActor;verticalLabelPosition=bottom;verticalAlign=top;html=1;" vertex="1" parent="63PPgOzyXpiEod-4MCjg-1">
          <mxGeometry x="60" y="360" width="60" height="120" as="geometry" />
        </mxCell>
        <mxCell id="md37uZJamLbwJpJN7hos-9" style="edgeStyle=orthogonalEdgeStyle;rounded=0;orthogonalLoop=1;jettySize=auto;html=1;" edge="1" parent="63PPgOzyXpiEod-4MCjg-1" source="md37uZJamLbwJpJN7hos-6">
          <mxGeometry relative="1" as="geometry">
            <mxPoint x="360" y="420" as="targetPoint" />
          </mxGeometry>
        </mxCell>
        <mxCell id="md37uZJamLbwJpJN7hos-6" value="Login" style="strokeWidth=2;html=1;shape=mxgraph.flowchart.terminator;whiteSpace=wrap;fillColor=#FEFFFA;" vertex="1" parent="63PPgOzyXpiEod-4MCjg-1">
          <mxGeometry x="200" y="395" width="120" height="50" as="geometry" />
        </mxCell>
        <mxCell id="md37uZJamLbwJpJN7hos-21" style="edgeStyle=orthogonalEdgeStyle;rounded=0;orthogonalLoop=1;jettySize=auto;html=1;entryX=0;entryY=0.5;entryDx=0;entryDy=0;entryPerimeter=0;" edge="1" parent="63PPgOzyXpiEod-4MCjg-1" source="md37uZJamLbwJpJN7hos-8" target="md37uZJamLbwJpJN7hos-20">
          <mxGeometry relative="1" as="geometry" />
        </mxCell>
        <mxCell id="md37uZJamLbwJpJN7hos-8" value="ViewCustomer Data" style="strokeWidth=2;html=1;shape=mxgraph.flowchart.start_1;whiteSpace=wrap;fillColor=#FEFFFA;" vertex="1" parent="63PPgOzyXpiEod-4MCjg-1">
          <mxGeometry x="550" y="260" width="150" height="60" as="geometry" />
        </mxCell>
        <mxCell id="md37uZJamLbwJpJN7hos-11" style="edgeStyle=orthogonalEdgeStyle;rounded=0;orthogonalLoop=1;jettySize=auto;html=1;entryX=0;entryY=0.5;entryDx=0;entryDy=0;entryPerimeter=0;" edge="1" parent="63PPgOzyXpiEod-4MCjg-1" source="md37uZJamLbwJpJN7hos-10" target="md37uZJamLbwJpJN7hos-8">
          <mxGeometry relative="1" as="geometry" />
        </mxCell>
        <mxCell id="md37uZJamLbwJpJN7hos-13" style="edgeStyle=orthogonalEdgeStyle;rounded=0;orthogonalLoop=1;jettySize=auto;html=1;entryX=0;entryY=0.5;entryDx=0;entryDy=0;entryPerimeter=0;" edge="1" parent="63PPgOzyXpiEod-4MCjg-1" source="md37uZJamLbwJpJN7hos-10" target="md37uZJamLbwJpJN7hos-12">
          <mxGeometry relative="1" as="geometry" />
        </mxCell>
        <mxCell id="md37uZJamLbwJpJN7hos-15" style="edgeStyle=orthogonalEdgeStyle;rounded=0;orthogonalLoop=1;jettySize=auto;html=1;" edge="1" parent="63PPgOzyXpiEod-4MCjg-1" source="md37uZJamLbwJpJN7hos-10" target="md37uZJamLbwJpJN7hos-14">
          <mxGeometry relative="1" as="geometry" />
        </mxCell>
        <mxCell id="md37uZJamLbwJpJN7hos-17" style="edgeStyle=orthogonalEdgeStyle;rounded=0;orthogonalLoop=1;jettySize=auto;html=1;" edge="1" parent="63PPgOzyXpiEod-4MCjg-1" source="md37uZJamLbwJpJN7hos-10" target="md37uZJamLbwJpJN7hos-16">
          <mxGeometry relative="1" as="geometry" />
        </mxCell>
        <mxCell id="md37uZJamLbwJpJN7hos-19" style="edgeStyle=orthogonalEdgeStyle;rounded=0;orthogonalLoop=1;jettySize=auto;html=1;entryX=0;entryY=0.5;entryDx=0;entryDy=0;entryPerimeter=0;" edge="1" parent="63PPgOzyXpiEod-4MCjg-1" source="md37uZJamLbwJpJN7hos-10" target="md37uZJamLbwJpJN7hos-18">
          <mxGeometry relative="1" as="geometry" />
        </mxCell>
        <mxCell id="md37uZJamLbwJpJN7hos-24" style="edgeStyle=orthogonalEdgeStyle;rounded=0;orthogonalLoop=1;jettySize=auto;html=1;entryX=0;entryY=0.5;entryDx=0;entryDy=0;entryPerimeter=0;" edge="1" parent="63PPgOzyXpiEod-4MCjg-1" source="md37uZJamLbwJpJN7hos-10" target="md37uZJamLbwJpJN7hos-23">
          <mxGeometry relative="1" as="geometry" />
        </mxCell>
        <mxCell id="md37uZJamLbwJpJN7hos-32" style="edgeStyle=orthogonalEdgeStyle;rounded=0;orthogonalLoop=1;jettySize=auto;html=1;entryX=0;entryY=0.5;entryDx=0;entryDy=0;entryPerimeter=0;" edge="1" parent="63PPgOzyXpiEod-4MCjg-1" source="md37uZJamLbwJpJN7hos-10" target="md37uZJamLbwJpJN7hos-30">
          <mxGeometry relative="1" as="geometry" />
        </mxCell>
        <mxCell id="md37uZJamLbwJpJN7hos-10" value="Main Menu" style="strokeWidth=2;html=1;shape=mxgraph.flowchart.terminator;whiteSpace=wrap;fillColor=#FEFFFA;" vertex="1" parent="63PPgOzyXpiEod-4MCjg-1">
          <mxGeometry x="360" y="395" width="120" height="50" as="geometry" />
        </mxCell>
        <mxCell id="md37uZJamLbwJpJN7hos-22" style="edgeStyle=orthogonalEdgeStyle;rounded=0;orthogonalLoop=1;jettySize=auto;html=1;entryX=0;entryY=0.5;entryDx=0;entryDy=0;entryPerimeter=0;" edge="1" parent="63PPgOzyXpiEod-4MCjg-1" source="md37uZJamLbwJpJN7hos-12" target="md37uZJamLbwJpJN7hos-20">
          <mxGeometry relative="1" as="geometry" />
        </mxCell>
        <mxCell id="md37uZJamLbwJpJN7hos-12" value="Search for Customer" style="strokeWidth=2;html=1;shape=mxgraph.flowchart.start_1;whiteSpace=wrap;fillColor=#FEFFFA;" vertex="1" parent="63PPgOzyXpiEod-4MCjg-1">
          <mxGeometry x="550" y="170" width="150" height="60" as="geometry" />
        </mxCell>
        <mxCell id="md37uZJamLbwJpJN7hos-14" value="Transfer Money (intern)" style="strokeWidth=2;html=1;shape=mxgraph.flowchart.start_1;whiteSpace=wrap;fillColor=#FEFFFA;" vertex="1" parent="63PPgOzyXpiEod-4MCjg-1">
          <mxGeometry x="550" y="350" width="150" height="60" as="geometry" />
        </mxCell>
        <mxCell id="md37uZJamLbwJpJN7hos-16" value="Transfer Money (extern)" style="strokeWidth=2;html=1;shape=mxgraph.flowchart.start_1;whiteSpace=wrap;fillColor=#FEFFFA;" vertex="1" parent="63PPgOzyXpiEod-4MCjg-1">
          <mxGeometry x="550" y="440" width="150" height="60" as="geometry" />
        </mxCell>
        <mxCell id="md37uZJamLbwJpJN7hos-18" value="Cash Deposit" style="strokeWidth=2;html=1;shape=mxgraph.flowchart.start_1;whiteSpace=wrap;fillColor=#FEFFFA;" vertex="1" parent="63PPgOzyXpiEod-4MCjg-1">
          <mxGeometry x="550" y="520" width="150" height="60" as="geometry" />
        </mxCell>
        <mxCell id="md37uZJamLbwJpJN7hos-20" value="Edit Customer Data" style="strokeWidth=2;html=1;shape=mxgraph.flowchart.start_1;whiteSpace=wrap;fillColor=#FEFFFA;" vertex="1" parent="63PPgOzyXpiEod-4MCjg-1">
          <mxGeometry x="770" y="260" width="150" height="60" as="geometry" />
        </mxCell>
        <mxCell id="md37uZJamLbwJpJN7hos-25" style="edgeStyle=orthogonalEdgeStyle;rounded=0;orthogonalLoop=1;jettySize=auto;html=1;" edge="1" parent="63PPgOzyXpiEod-4MCjg-1" source="md37uZJamLbwJpJN7hos-23">
          <mxGeometry relative="1" as="geometry">
            <mxPoint x="780" y="130" as="targetPoint" />
          </mxGeometry>
        </mxCell>
        <mxCell id="md37uZJamLbwJpJN7hos-23" value="New Customer" style="strokeWidth=2;html=1;shape=mxgraph.flowchart.start_1;whiteSpace=wrap;fillColor=#FEFFFA;" vertex="1" parent="63PPgOzyXpiEod-4MCjg-1">
          <mxGeometry x="550" y="100" width="150" height="60" as="geometry" />
        </mxCell>
        <mxCell id="md37uZJamLbwJpJN7hos-27" style="edgeStyle=orthogonalEdgeStyle;rounded=0;orthogonalLoop=1;jettySize=auto;html=1;" edge="1" parent="63PPgOzyXpiEod-4MCjg-1" source="md37uZJamLbwJpJN7hos-26">
          <mxGeometry relative="1" as="geometry">
            <mxPoint x="1000" y="130" as="targetPoint" />
          </mxGeometry>
        </mxCell>
        <mxCell id="md37uZJamLbwJpJN7hos-26" value="Enter Customer Data" style="strokeWidth=2;html=1;shape=mxgraph.flowchart.start_1;whiteSpace=wrap;fillColor=#FEFFFA;" vertex="1" parent="63PPgOzyXpiEod-4MCjg-1">
          <mxGeometry x="780" y="100" width="150" height="60" as="geometry" />
        </mxCell>
        <mxCell id="md37uZJamLbwJpJN7hos-28" value="Print Contract &amp;amp; other Documents" style="strokeWidth=2;html=1;shape=mxgraph.flowchart.start_1;whiteSpace=wrap;fillColor=#FEFFFA;" vertex="1" parent="63PPgOzyXpiEod-4MCjg-1">
          <mxGeometry x="1000" y="100" width="150" height="60" as="geometry" />
        </mxCell>
        <mxCell id="md37uZJamLbwJpJN7hos-30" value="Log Out" style="strokeWidth=2;html=1;shape=mxgraph.flowchart.start_1;whiteSpace=wrap;fillColor=#FEFFFA;" vertex="1" parent="63PPgOzyXpiEod-4MCjg-1">
          <mxGeometry x="550" y="600" width="150" height="60" as="geometry" />
        </mxCell>
      </root>
    </mxGraphModel>
  </diagram>
  <diagram id="DcLejKhkZ5VSy4MfH_Nx" name="Activity Diagram">
    <mxGraphModel dx="1646" dy="904" grid="1" gridSize="10" guides="1" tooltips="1" connect="1" arrows="1" fold="1" page="1" pageScale="1" pageWidth="827" pageHeight="1169" math="0" shadow="0">
      <root>
        <mxCell id="JrlfqNM0wIshlYVjzitG-0" />
        <mxCell id="JrlfqNM0wIshlYVjzitG-1" parent="JrlfqNM0wIshlYVjzitG-0" />
      </root>
    </mxGraphModel>
  </diagram>
</mxfile>
